<svg width="31" height="23" viewBox="0 0 31 23" fill="none" xmlns="http://www.w3.org/2000/svg">
<path d="M30.7133 0.943115L29.7656 3.37207H27.3052L22.874 17.9458H5.98755L0.101074 4.58655H21.545L20.8256 7.0155H3.93781L7.68398 15.5168H20.985L25.3626 0.943115H30.7133V0.943115ZM10.9429 19.1603C9.88679 19.1603 9.02965 19.9764 9.02965 20.982C9.02965 21.9888 9.88679 22.8037 10.9429 22.8037C11.999 22.8037 12.8562 21.9888 12.8562 20.982C12.8562 19.9764 11.999 19.1603 10.9429 19.1603ZM19.7439 10.6589L17.3205 19.1603C16.2643 19.1603 15.4072 19.9752 15.4072 20.982C15.4072 21.9888 16.2643 22.8037 17.3205 22.8037C18.3766 22.8037 19.2337 21.9888 19.2337 20.982C19.2337 19.9764 18.3766 19.1603 17.3205 19.1603L19.7439 10.6589Z" fill="#2F3035"/>
</svg>
