<svg width="26" height="23" viewBox="0 0 26 23" fill="none" xmlns="http://www.w3.org/2000/svg">
<path d="M12.9593 8.2996C13.198 7.17186 14.5378 2.02754 18.4511 2.02754C20.7164 2.02754 23.1633 3.58926 23.1633 7.06512C23.1633 10.9991 19.4623 15.5937 12.9593 19.7814C6.45619 15.5937 2.75517 10.9991 2.75517 7.06512C2.75517 3.55704 5.17252 2.02553 7.42558 2.02553C11.4286 2.02553 12.6756 7.18696 12.9593 8.2996ZM0.714355 7.06512C0.714355 11.1612 3.8368 16.6117 12.9593 22.1658C22.0817 16.6117 25.2042 11.1612 25.2042 7.06512C25.2042 -0.951912 15.3593 -2.02528 12.9593 3.30229C10.5735 -1.99608 0.714355 -0.997224 0.714355 7.06512Z" fill="#2F3035"/>
</svg>
